<svg width="55" height="133" viewBox="0 0 55 133" fill="none" xmlns="http://www.w3.org/2000/svg">
<path d="M35.0383 98.3735L29.3158 66.4711L12.793 69.9972L14.2731 97.8669L27.048 108.85L35.0383 98.3735Z" fill="#FFB6B6"/>
<path d="M1.99956 6.9999L3.88289 3.5L7.99992 0.499904C9.00033 0.499904 14.9999 -5.14646e-05 15.9999 3.97361e-09C16.9999 5.14726e-05 22.4999 0.499904 22.4999 0.499904C26.4173 2.92561 28.1848 5.54365 29.6576 8.27818C31.746 12.1557 31.3986 15.4441 31.6634 23.8793C31.8082 28.4935 32.3134 33.0906 32.4987 37.7033C33.5835 64.7084 37.6637 69.5396 33.2357 74.9562C28.3227 80.966 17.304 82.3532 13.1937 78.5405C11.5104 76.979 11.6693 75.1796 10.9542 70.8332C8.85756 58.0892 4.84189 57.4556 3.63309 47.9639C2.22181 36.8822 2.5 42 2.5 39C2.50004 36.5 1.99926 35 1.99927 33.5C1.99956 31.5 1.99956 28.5 1.99931 23.8793C1.99891 16.3491 1.99956 23.5 0.499916 17C0.499916 17 -0.500062 13.5 0.499916 10.9999C0.99992 10 1.99931 7.5 1.99956 6.9999Z" fill="#2F2E41"/>
<path d="M26.3666 98.8202C28.165 99.1367 30.2677 99.5068 31.9157 98.1944C33.0307 97.3065 33.771 95.7809 33.6968 94.3293C33.6113 92.6544 32.4718 91.668 32.6548 91.5061C32.9335 91.2596 35.7832 93.3638 38.2269 96.6821C38.6881 97.3083 40.7551 100.178 42.399 105.28C43.7161 109.368 43.0416 109.55 43.9424 112.003C46.7076 119.533 53.8351 119.915 54.2893 125.525C54.4646 127.69 53.5951 130.005 52.0298 131.291C48.8863 133.875 43.5043 131.846 40.5856 130.704C33.5565 127.952 29.7116 123.695 25.4478 119.616C10.9477 105.747 0.0434396 102.017 1.38628 97.388C1.64043 96.512 1.97752 96.83 6.81502 92.4186C11.5896 88.0646 12.5177 86.609 13.8614 86.9127C15.8841 87.37 15.0218 90.9488 18.3835 94.6551C21.3625 97.9396 25.2013 98.6152 26.3666 98.8202V98.8202Z" fill="#2F2E41"/>
</svg>
